<svg width="174" height="107" viewBox="0 0 174 107" fill="none" xmlns="http://www.w3.org/2000/svg">
<path d="M111.23 8.96511C110.483 8.89916 109.893 8.64046 109.461 8.18901C109.029 7.73756 108.834 7.12428 108.874 6.34919C108.944 5.52204 109.26 4.86856 109.821 4.38876C110.384 3.88222 111.079 3.66403 111.906 3.73418C112.68 3.80153 113.269 4.06023 113.674 4.51028C114.106 4.96173 114.288 5.5743 114.221 6.348C114.152 7.14842 113.85 7.8026 113.314 8.31053C112.78 8.79174 112.085 9.00993 111.23 8.96511ZM110.205 29.2934C109.403 29.2514 108.786 29.0046 108.354 28.5532C107.923 28.075 107.736 27.3014 107.792 26.2323C107.824 25.6175 107.909 25.019 108.047 24.4366C108.211 23.8556 108.389 23.2886 108.578 22.7358C108.796 22.1576 108.975 21.5639 109.114 20.9548C109.28 20.3471 109.381 19.6957 109.417 19.0008C109.443 18.5197 109.4 18.0619 109.288 17.6272C109.178 17.1659 108.902 16.8164 108.459 16.5787C108.121 16.3734 107.824 16.1702 107.566 15.9691C107.337 15.7427 107.231 15.4691 107.247 15.1484C107.267 14.7742 107.462 14.3824 107.832 13.973C108.201 13.5635 108.675 13.2265 109.251 12.9619C109.856 12.672 110.466 12.5432 111.081 12.5754C111.749 12.6104 112.221 12.8094 112.497 13.1722C112.799 13.5365 112.99 13.9887 113.069 14.5289C113.148 15.069 113.172 15.6197 113.143 16.181C113.098 17.0363 112.987 17.8747 112.81 18.6962C112.635 19.491 112.462 20.2324 112.292 20.9203C112.158 21.4225 112.053 21.8861 111.978 22.3109C111.902 22.7357 111.854 23.1352 111.834 23.5094C111.799 24.1776 111.933 24.6938 112.236 25.0581C112.539 25.3956 112.978 25.7268 113.55 26.0516C113.784 26.1979 113.894 26.4046 113.88 26.6719C113.868 26.8857 113.744 27.2142 113.506 27.6574C113.269 28.1005 112.873 28.4952 112.319 28.8414C111.791 29.1889 111.087 29.3396 110.205 29.2934ZM122.588 30.063C120.958 29.9776 119.81 29.3814 119.144 28.2745C118.507 27.1422 118.233 25.7208 118.323 24.0103C118.355 23.3955 118.413 22.7956 118.497 22.2104C118.608 21.6266 118.719 21.0428 118.83 20.459C118.941 19.8752 119.052 19.3047 119.161 18.7477C119.271 18.1906 119.366 17.6595 119.446 17.1545C118.876 17.2855 118.311 17.3362 117.749 17.3068C117.161 17.276 116.88 17.02 116.905 16.539C116.932 16.0311 117.191 15.4283 117.683 14.7305C118.177 14.0059 118.777 13.3003 119.483 12.6137C120.215 11.9285 120.928 11.3628 121.622 10.9168C122.343 10.4454 122.945 10.2223 123.426 10.2475C124.014 10.2783 124.281 10.8015 124.228 11.8172C124.214 12.0845 124.172 12.3637 124.104 12.6549C124.063 12.9208 124.008 13.1993 123.939 13.4905C124.453 13.4102 124.965 13.3433 125.477 13.2897C126.016 13.2375 126.526 13.2241 127.007 13.2493C127.622 13.2815 128.084 13.4129 128.394 13.6435C128.73 13.8756 128.882 14.2989 128.85 14.9137C128.816 15.5551 128.622 16.1882 128.268 16.8128C127.94 17.4389 127.589 17.7421 127.215 17.7225C127.135 17.7183 127.002 17.6979 126.816 17.6614C126.63 17.6249 126.405 17.5729 126.141 17.5054C125.798 17.407 125.361 17.3037 124.83 17.1955C124.3 17.0873 123.661 17.0136 122.912 16.9744C122.682 17.7931 122.463 18.6393 122.257 19.5129C122.078 20.3612 121.971 21.1328 121.934 21.8277C121.853 23.3779 122.185 24.4539 122.931 25.0558C123.677 25.6577 124.785 25.9972 126.255 26.0742C126.709 26.098 127.026 26.195 127.204 26.3652C127.384 26.5086 127.465 26.7674 127.445 27.1416C127.399 28.0236 126.905 28.7482 125.964 29.3153C125.023 29.8824 123.898 30.1316 122.588 30.063ZM132.942 14.3241C132.728 14.3129 132.543 14.263 132.387 14.1744C132.232 14.0591 132.162 13.8678 132.176 13.6005C132.187 13.3867 132.264 13.1898 132.408 13.0097C132.578 12.831 132.789 12.641 133.04 12.4398C133.657 11.9361 134.129 11.3578 134.458 10.7051C134.788 10.0256 134.964 9.48535 134.985 9.08444C134.996 8.87062 134.951 8.70746 134.85 8.59495C134.777 8.45711 134.583 8.31296 134.27 8.16252C133.933 7.93049 133.681 7.63585 133.512 7.27858C133.37 6.92272 133.308 6.57106 133.326 6.22361C133.358 5.60888 133.614 5.07287 134.094 4.61559C134.601 4.13298 135.23 3.91129 135.978 3.95051C136.726 3.98973 137.316 4.24843 137.746 4.72661C138.177 5.20479 138.364 5.97842 138.308 7.04752C138.263 7.9028 138.058 8.74967 137.692 9.58814C137.354 10.428 136.925 11.1962 136.406 11.8926C135.915 12.5637 135.418 13.1004 134.914 13.5029C134.577 13.8068 134.23 14.0298 133.874 14.172C133.52 14.2874 133.209 14.3381 132.942 14.3241ZM141.25 31.041C140.261 30.9892 139.347 30.7939 138.507 30.4551C137.667 30.1162 136.994 29.6655 136.488 29.103C135.981 28.5404 135.747 27.885 135.787 27.1366C135.808 26.7357 135.921 26.3664 136.126 26.0287C136.36 25.6658 136.703 25.4962 137.158 25.52C137.398 25.5326 137.649 25.6127 137.909 25.7604C138.376 26.0529 138.978 26.339 139.713 26.6188C140.45 26.8718 141.233 27.02 142.062 27.0634C142.997 27.1125 143.833 27.0223 144.568 26.7928C145.304 26.5633 145.685 26.2081 145.71 25.727C145.729 25.3528 145.463 25.0708 144.91 24.881C144.384 24.6927 143.484 24.4713 142.211 24.217C141.337 24.0104 140.492 23.7785 139.675 23.5212C138.857 23.264 138.195 22.8675 137.687 22.3316C137.18 21.7691 136.953 20.98 137.007 19.9643C137.059 18.9754 137.376 18.0406 137.958 17.1599C138.568 16.2538 139.437 15.5221 140.565 14.9648C141.693 14.4075 143.046 14.1702 144.623 14.2529C145.451 14.2963 146.248 14.4319 147.013 14.6596C147.779 14.8873 148.405 15.2015 148.894 15.6023C149.382 16.0031 149.611 16.4842 149.582 17.0454C149.557 17.5265 149.36 17.9584 148.991 18.3411C148.65 18.7252 148.245 19.039 147.776 19.2825C147.336 19.5006 146.969 19.602 146.675 19.5866C146.461 19.5754 146.215 19.4151 145.936 19.1056C145.501 18.7076 145.007 18.4271 144.453 18.2641C143.927 18.0757 143.396 17.9675 142.862 17.9395C142.06 17.8975 141.399 17.9834 140.878 18.1973C140.385 18.4127 140.128 18.7074 140.108 19.0816C140.09 19.4291 140.276 19.7202 140.666 19.9551C141.082 20.1913 141.595 20.379 142.204 20.5181C142.814 20.6305 143.398 20.7415 143.955 20.8511C145.494 21.1461 146.704 21.5848 147.585 22.1669C148.467 22.7224 148.874 23.6549 148.805 24.9646C148.752 25.9802 148.405 26.9804 147.763 27.9653C147.15 28.9248 146.279 29.6965 145.15 30.2806C144.047 30.866 142.747 31.1195 141.25 31.041ZM107.679 55.2369C106.717 55.1865 106.306 54.8434 106.447 54.2075C106.801 53.0736 107.102 51.9236 107.351 50.7574C107.628 49.5659 107.795 48.4222 107.852 47.3264C107.927 45.9098 107.887 44.8759 107.734 44.2246C107.608 43.5481 107.405 43.0818 107.123 42.8258C106.843 42.5431 106.493 42.3238 106.073 42.1677C105.89 42.0777 105.722 41.9617 105.568 41.8197C105.442 41.6791 105.385 41.4885 105.397 41.2479C105.417 40.8737 105.585 40.4672 105.903 40.0282C106.221 39.5892 106.656 39.2234 107.207 38.9307C107.786 38.6126 108.424 38.4718 109.119 38.5083C110.027 38.5559 110.639 38.9095 110.952 39.5692C111.268 40.2021 111.399 41.0264 111.345 42.0421C111.31 42.7102 111.204 43.4551 111.027 44.2767C110.85 45.0982 110.677 45.8396 110.509 46.5008L110.587 46.545C111.089 45.1509 111.679 43.8686 112.356 42.6981C113.061 41.5289 113.874 40.5933 114.795 39.8912C115.743 39.1904 116.805 38.8709 117.981 38.9325C119.184 38.9955 120.111 39.4595 120.762 40.3245C121.415 41.1627 121.7 42.3703 121.618 43.9472L121.571 44.8292C122.432 43.2395 123.439 41.9254 124.592 40.887C125.772 39.85 127.15 39.3729 128.727 39.4555C130.01 39.5227 130.99 40.0029 131.667 40.896C132.344 41.7891 132.649 42.8771 132.581 44.16C132.555 44.6678 132.475 45.1595 132.343 45.635C132.212 46.0837 132.068 46.5318 131.911 46.9792C131.782 47.4012 131.652 47.8366 131.521 48.2854C131.39 48.7341 131.313 49.1857 131.289 49.6401C131.205 51.2437 131.832 52.3218 133.17 52.8743C133.353 52.9643 133.495 53.0656 133.596 53.1781C133.699 53.2639 133.744 53.427 133.731 53.6676C133.719 53.9081 133.62 54.2514 133.436 54.6973C133.279 55.1447 132.976 55.5576 132.527 55.9361C132.08 56.2879 131.455 56.4428 130.653 56.4008C129.611 56.3461 128.829 55.9299 128.307 55.1521C127.786 54.3476 127.557 53.3574 127.618 52.1814C127.649 51.5934 127.735 50.9814 127.875 50.3456C128.016 49.7097 128.182 49.102 128.373 48.5224C128.534 47.9949 128.668 47.4926 128.773 47.0157C128.905 46.5403 128.981 46.1288 128.999 45.7813C129.032 45.1399 128.897 44.6637 128.591 44.3529C128.313 44.0435 127.919 43.8755 127.412 43.8489C126.556 43.8041 125.767 44.0307 125.044 44.5288C124.348 45.0284 123.71 45.6918 123.131 46.519C122.578 47.3477 122.088 48.26 121.661 49.2561C121.675 49.498 121.672 49.8195 121.651 50.2204C121.658 50.5959 121.654 50.9307 121.638 51.2247C121.612 51.7326 121.543 52.265 121.434 52.8221C121.351 53.3806 121.206 53.842 120.999 54.2064C120.759 54.703 120.417 55.1004 119.972 55.3988C119.554 55.6985 118.998 55.8301 118.303 55.7937C118.009 55.7783 117.732 55.6968 117.472 55.5491C117.21 55.4282 117.086 55.2341 117.1 54.9668C117.106 54.8599 117.211 54.3964 117.414 53.5763C117.62 52.7294 117.835 51.6954 118.059 50.4744C118.284 49.2533 118.427 48.0548 118.489 46.8788C118.556 45.5959 118.469 44.7069 118.227 44.2118C117.986 43.6899 117.599 43.415 117.064 43.387C116.396 43.352 115.74 43.599 115.095 44.1281C114.478 44.6585 113.892 45.3514 113.338 46.2068C112.811 47.0636 112.335 47.9633 111.91 48.9059C111.513 49.8499 111.185 50.7305 110.928 51.5479L110.905 51.9889C110.853 52.9778 110.529 53.7783 109.935 54.3903C109.366 55.0037 108.615 55.2859 107.679 55.2369ZM136.694 67.4109C135.599 67.3534 134.679 67.0104 133.934 66.3818C133.163 65.7518 132.804 64.9423 132.856 63.9534C132.896 63.1783 133.172 62.5227 133.682 61.9867C134.165 61.4759 134.753 61.2388 135.448 61.2752C135.769 61.292 135.993 61.3573 136.121 61.4713C136.249 61.5852 136.35 61.711 136.423 61.8489C136.619 62.2075 136.844 62.5142 137.099 62.7687C137.379 63.0514 137.759 63.2053 138.24 63.2306C138.882 63.2642 139.508 63.0692 140.12 62.6457C140.759 62.2235 141.347 61.7317 141.886 61.1703C142.367 60.6863 142.953 59.98 143.645 59.0515C144.336 58.1496 145.033 57.1142 145.738 55.945C145.123 56.422 144.556 56.7542 144.037 56.9414C143.517 57.1553 143.029 57.2504 142.575 57.2265C142.014 57.1971 141.476 56.968 140.963 56.539C140.451 56.0834 140.158 55.2774 140.084 54.1211C140.05 53.2349 139.941 52.251 139.757 51.1693C139.599 50.089 139.372 49.0453 139.077 48.0381C138.809 47.0057 138.453 46.1294 138.008 45.4093C137.838 45.0787 137.637 44.827 137.405 44.654C137.173 44.481 136.831 44.3559 136.379 44.2787C136.06 44.2351 135.851 44.1304 135.752 43.9644C135.681 43.7998 135.654 43.5438 135.672 43.1964C135.722 42.2342 136.03 41.4731 136.596 40.9131C137.161 40.3531 137.898 40.0969 138.807 40.1446C139.903 40.202 140.669 40.6709 141.105 41.5514C141.543 42.4052 141.904 43.4425 142.188 44.6635C142.297 45.1516 142.397 45.8 142.488 46.6089C142.608 47.3924 142.697 48.2413 142.757 49.1556C142.843 50.0714 142.891 50.9449 142.901 51.7763C142.897 52.3657 143.215 52.6772 143.857 52.7108C144.712 52.7556 145.541 52.5311 146.344 52.0371C147.148 51.5432 147.812 50.8812 148.338 50.0511C148.891 49.2225 149.191 48.3404 149.24 47.405C149.269 46.8704 149.227 46.3858 149.116 45.9512C149.004 45.5165 148.797 45.1304 148.493 44.7929C148.242 44.4582 148.042 44.1931 147.891 43.9976C147.742 43.7753 147.675 43.5306 147.689 43.2633C147.713 42.8089 147.949 42.3925 148.397 42.014C148.846 41.6355 149.371 41.328 149.973 41.0916C150.602 40.8565 151.144 40.7509 151.598 40.7747C152.4 40.8167 152.914 41.2323 153.141 42.0214C153.369 42.7838 153.392 43.6158 153.211 44.5175C152.985 45.7653 152.586 47.2319 152.016 48.9172C151.445 50.6026 150.723 52.3604 149.85 54.1907C149.003 56.0224 148.04 57.781 146.96 59.4664C145.905 61.18 144.796 62.6629 143.631 63.9151C142.636 65.0154 141.545 65.8828 140.359 66.5175C139.172 67.1789 137.951 67.4767 136.694 67.4109ZM159.582 50.6002C159.127 50.5764 158.823 50.4935 158.67 50.3514C158.518 50.1826 158.45 49.9379 158.467 49.6172C158.471 49.537 158.477 49.4301 158.484 49.2964C158.492 49.1361 158.517 48.923 158.558 48.6571C158.639 48.1253 158.714 47.4726 158.781 46.6989C158.848 45.9252 158.906 45.084 158.953 44.1753C159.073 41.9035 159.055 40.2007 158.9 39.0669C158.745 37.9331 158.614 37.1089 158.507 36.594C158.45 36.1355 158.425 35.8394 158.432 35.7057C158.455 35.2781 158.72 34.823 159.228 34.3404C159.764 33.8324 160.526 33.6044 161.515 33.6562C162.45 33.7052 163.02 34.0835 163.224 34.791C163.456 35.4732 163.533 36.576 163.453 38.0995C163.393 39.2488 163.259 40.5148 163.053 41.8976C162.846 43.2805 162.618 44.5683 162.368 45.7613C162.118 46.9542 161.896 47.8672 161.702 48.5002C161.409 49.4765 161.096 50.0766 160.763 50.3003C160.457 50.5254 160.063 50.6254 159.582 50.6002ZM158.843 57.7977C158.094 57.7585 157.492 57.4857 157.036 56.9794C156.607 56.4745 156.412 55.8478 156.451 55.0995C156.492 54.3244 156.779 53.6962 157.314 53.215C157.848 52.7338 158.516 52.5142 159.318 52.5563C160.067 52.5955 160.656 52.8542 161.087 53.3323C161.517 53.8105 161.713 54.4238 161.674 55.1722C161.632 55.974 161.343 56.6289 160.807 57.1368C160.272 57.618 159.618 57.8383 158.843 57.7977ZM111.382 96.5677C110.393 96.5158 109.547 96.2973 108.844 95.912C108.167 95.5281 107.576 95.0549 107.069 94.4924C106.778 94.9327 106.435 95.3302 106.042 95.6848C105.676 96.014 105.266 96.1667 104.812 96.1429C104.518 96.1275 104.242 96.0193 103.984 95.8182C103.726 95.6438 103.631 95.411 103.699 95.1198C104.212 93.0026 104.66 90.8552 105.042 88.6776C105.451 86.5013 105.715 84.2773 105.834 82.0055C105.933 80.1078 105.96 78.3269 105.913 76.6628C105.866 74.9987 105.532 73.4536 104.91 72.0273C104.79 71.753 104.683 71.4928 104.589 71.2467C104.521 71.0019 104.493 70.7727 104.504 70.5588C104.531 70.051 104.851 69.572 105.464 69.1217C106.077 68.6714 106.718 68.4638 107.386 68.4988C108.348 68.5492 108.972 69.1715 109.258 70.3658C109.544 71.56 109.627 73.3064 109.506 75.6049C109.404 77.556 109.216 79.3418 108.944 80.9624C108.7 82.5577 108.44 83.9243 108.166 85.0624C108.997 83.5247 110.082 82.2549 111.421 81.253C112.788 80.2259 114.287 79.755 115.917 79.8404C117.548 79.9259 118.789 80.5403 119.64 81.6838C120.519 82.8019 120.911 84.283 120.814 86.1272C120.743 87.4903 120.459 88.8155 119.962 90.1027C119.468 91.3632 118.805 92.4944 117.976 93.4961C117.146 94.4979 116.167 95.2774 115.039 95.8347C113.938 96.3934 112.719 96.6377 111.382 96.5677ZM112.531 92.2862C114.055 92.366 115.256 91.9465 116.135 91.0278C117.014 90.109 117.486 89.0215 117.552 87.7653C117.61 86.6695 117.346 85.8115 116.763 85.1913C116.207 84.5457 115.434 84.1971 114.446 84.1452C113.457 84.0934 112.558 84.3545 111.751 84.9286C110.945 85.476 110.249 86.2302 109.663 87.1911C109.078 88.1252 108.609 89.1459 108.256 90.253C108.84 90.8733 109.498 91.3633 110.229 91.7233C110.989 92.0579 111.756 92.2455 112.531 92.2862ZM127.769 76.9238C127.022 76.8579 126.432 76.5992 126 76.1477C125.568 75.6963 125.373 75.083 125.413 74.3079C125.484 73.4808 125.799 72.8273 126.36 72.3475C126.923 71.8409 127.618 71.6228 128.445 71.6929C129.219 71.7603 129.808 72.019 130.213 72.469C130.645 72.9205 130.828 73.533 130.76 74.3067C130.691 75.1071 130.389 75.7613 129.853 76.2693C129.319 76.7505 128.624 76.9687 127.769 76.9238ZM126.744 97.2521C125.942 97.2101 125.325 96.9634 124.893 96.5119C124.462 96.0337 124.275 95.2601 124.331 94.191C124.363 93.5763 124.448 92.9777 124.586 92.3953C124.751 91.8143 124.928 91.2474 125.117 90.6945C125.335 90.1163 125.514 89.5226 125.653 88.9135C125.819 88.3058 125.92 87.6545 125.956 86.9595C125.982 86.4785 125.939 86.0206 125.827 85.5859C125.718 85.1246 125.441 84.7751 124.998 84.5374C124.66 84.3321 124.363 84.1289 124.105 83.9278C123.876 83.7014 123.77 83.4278 123.786 83.1071C123.806 82.7329 124.001 82.3411 124.371 81.9317C124.74 81.5223 125.214 81.1853 125.79 80.9207C126.395 80.6308 127.005 80.5019 127.62 80.5341C128.288 80.5691 128.76 80.7681 129.036 81.131C129.338 81.4952 129.529 81.9474 129.608 82.4876C129.687 83.0277 129.711 83.5784 129.682 84.1397C129.637 84.995 129.526 85.8334 129.349 86.6549C129.174 87.4498 129.001 88.1911 128.831 88.879C128.697 89.3813 128.592 89.8448 128.517 90.2696C128.441 90.6945 128.393 91.094 128.373 91.4682C128.338 92.1363 128.472 92.6526 128.775 93.0168C129.079 93.3544 129.517 93.6855 130.089 94.0104C130.323 94.1566 130.433 94.3634 130.419 94.6306C130.407 94.8445 130.283 95.1729 130.045 95.6161C129.808 96.0593 129.412 96.4539 128.858 96.8001C128.33 97.1477 127.626 97.2983 126.744 97.2521ZM134.802 97.7146C134.508 97.6992 134.232 97.591 133.974 97.3899C133.716 97.2155 133.621 96.9827 133.689 96.6915C134.202 94.5743 134.65 92.4269 135.032 90.2493C135.442 88.0463 135.706 85.8223 135.824 83.5772C135.928 81.5993 135.955 79.8051 135.905 78.1945C135.855 76.5838 135.508 75.0246 134.864 73.5168C134.746 73.2157 134.652 72.9562 134.583 72.7382C134.514 72.5202 134.484 72.3176 134.494 72.1305C134.521 71.6227 134.841 71.1437 135.454 70.6934C136.067 70.2431 136.708 70.0355 137.376 70.0705C138.338 70.1209 138.962 70.7433 139.248 71.9375C139.534 73.1317 139.617 74.8781 139.496 77.1766C139.352 79.9295 139.065 82.3266 138.637 84.3678C138.21 86.3823 137.848 87.9178 137.551 88.9743L137.707 89.0628C138.311 87.7812 139.058 86.5607 139.95 85.4014C140.843 84.2154 141.845 83.2495 142.956 82.5037C144.094 81.7593 145.304 81.4207 146.587 81.4879C147.843 81.5538 148.786 81.9784 149.415 82.7618C150.07 83.5466 150.371 84.4601 150.316 85.5025C150.252 86.732 149.753 87.8047 148.821 88.7206C147.888 89.6366 146.697 90.3782 145.247 90.9454C145.547 91.8724 146.003 92.6199 146.617 93.1881C147.232 93.7295 148.034 94.0261 149.022 94.078C149.343 94.0948 149.612 94.0821 149.829 94.0398C150.18 93.9778 150.336 94.321 150.297 95.0694C150.275 95.497 150.169 95.9739 149.981 96.5001C149.793 97.0262 149.447 97.4771 148.945 97.8528C148.471 98.2032 147.767 98.3539 146.831 98.3049C145.575 98.239 144.565 97.8243 143.801 97.0606C143.065 96.2716 142.498 95.3307 142.1 94.2378C141.729 93.1195 141.452 92.0196 141.267 90.9379C141.105 89.9377 141.467 89.4341 142.352 89.4268C143.293 89.369 144.096 89.1296 144.761 88.7089C145.426 88.2881 145.779 87.7036 145.818 86.9552C145.863 86.0999 145.471 85.6506 144.642 85.6072C144.108 85.5792 143.549 85.7509 142.967 86.1224C142.413 86.4686 141.881 86.8963 141.372 87.4056C140.89 87.9164 140.488 88.418 140.168 88.9104C139.73 89.5843 139.347 90.2476 139.018 90.9004C138.689 91.5532 138.414 92.2087 138.191 92.8671L138.107 94.4708C138.056 95.4597 137.719 96.2595 137.097 96.8701C136.502 97.4821 135.737 97.7636 134.802 97.7146ZM159.222 99.0749C157.191 98.9684 155.631 98.3104 154.542 97.1009C153.481 95.8661 153.005 94.2063 153.114 92.1216C153.214 90.2239 153.718 88.5217 154.628 87.0149C155.538 85.5082 156.712 84.3368 158.149 83.5009C159.615 82.6397 161.189 82.2532 162.873 82.3415C164.477 82.4255 165.739 82.8937 166.659 83.7459C167.58 84.5714 168.007 85.639 167.938 86.9487C167.884 87.991 167.513 88.9364 166.825 89.7848C166.137 90.6332 165.245 91.2966 164.148 91.7752C163.052 92.2269 161.849 92.4185 160.54 92.3499C158.936 92.2658 157.645 91.8364 156.667 91.0615C156.63 92.2924 156.992 93.303 157.755 94.0934C158.544 94.8852 159.58 95.3147 160.863 95.3819C161.638 95.4226 162.434 95.3302 163.25 95.105C164.093 94.8544 164.822 94.504 165.435 94.0537C165.826 93.7526 166.182 93.6104 166.503 93.6272C166.77 93.6412 166.979 93.746 167.13 93.9415C167.308 94.1117 167.391 94.3304 167.377 94.5977C167.346 95.1857 166.797 95.9341 165.731 96.8431C163.851 98.4598 161.681 99.2037 159.222 99.0749ZM160.317 89.685C161.28 89.7354 162.092 89.577 162.754 89.2097C163.417 88.8424 163.764 88.3514 163.796 87.7366C163.823 87.2288 163.63 86.8301 163.216 86.5404C162.804 86.224 162.223 86.0461 161.475 86.0069C160.486 85.9551 159.603 86.1768 158.827 86.6722C158.079 87.1422 157.52 87.8365 157.15 88.7551C157.512 89.0153 157.983 89.2276 158.564 89.3921C159.145 89.5565 159.729 89.6542 160.317 89.685Z" fill="white"/>
<path fill-rule="evenodd" clip-rule="evenodd" d="M24.4435 106.786C39.4434 108.532 50.2439 99.3857 48.6374 86.4302C48.6374 75.1878 37.8054 66.5746 24.4435 66.5746C8.73994 63.2112 -1.2331 69.5255 0.750517 83.7605C0.750517 95.0029 11.0816 106.786 24.4435 106.786ZM9.90965 75.8257L22.9859 84.0364C23.3741 84.2801 23.8602 84.3077 24.2734 84.1093L39.2312 76.9296C39.8387 76.638 40.1 75.9303 39.5881 75.4922C38.7361 74.7629 37.2332 74.0264 35.3764 73.1164C34.9291 72.8972 34.4613 72.668 33.9771 72.4263C33.7445 72.3103 33.4821 72.2634 33.2239 72.2933C32.743 72.349 32.2815 72.4039 31.8353 72.457C27.5708 72.9644 24.6981 73.3062 19.605 72.5814L19.3563 72.546C18.6803 72.45 13.3464 72.6583 12.6684 72.7397C12.6211 72.7453 12.5742 72.7569 12.5296 72.7736C12.3054 72.8575 12.0888 72.935 11.881 73.0094C10.6525 73.4489 9.73438 73.7773 9.39812 74.6664C9.23012 75.1106 9.50746 75.5732 9.90965 75.8257ZM19.112 83.6708L8.56076 77.7264C7.92909 77.3706 7.12334 77.5812 6.78219 78.2209C5.95375 79.7744 5.49523 81.0853 4.92193 83.26C4.13222 86.181 3.96439 87.8517 4.38937 90.7239C4.41003 90.8635 4.45383 90.9996 4.5184 91.1251C5.24231 92.5317 5.79823 93.3923 6.636 94.3055C7.07515 94.7842 7.80667 94.8249 8.32949 94.4393L19.5243 86.1832C20.1815 85.6985 20.2533 84.7425 19.6758 84.1651L19.4007 83.8899C19.3148 83.8041 19.2177 83.7304 19.112 83.6708ZM20.227 87.6167L12.5007 97.6076C12.0168 98.2334 12.1768 99.1462 12.8584 99.5479C14.1548 100.312 15.4283 100.938 18.1034 101.948C20.2584 102.7 21.503 103.074 23.9432 103.449C26.4344 104.102 27.7905 104.202 30.1168 103.783C32.2135 103.291 33.1478 102.937 33.4758 102.422C33.6497 102.149 33.5104 101.807 33.3101 101.553L22.3318 87.6076C21.7944 86.9249 20.7585 86.9294 20.227 87.6167ZM40.8581 79.5004L27.2094 85.4892C26.3558 85.8637 26.1392 86.9756 26.7898 87.6432L37.4826 98.6137C37.9471 99.0903 38.6944 99.1538 39.2207 98.7464C41.7122 96.8174 43.0683 95.2653 44.8693 92.4245C44.9337 92.3228 44.9845 92.2115 45.0187 92.0961C45.4872 90.5128 45.6711 89.546 45.6342 87.765C45.539 86.6117 45.3618 85.6714 45.0139 83.9882C44.9829 83.8379 44.9259 83.6936 44.8459 83.5627L43.1314 80.7572L42.4368 79.8889C42.0592 79.4169 41.4116 79.2576 40.8581 79.5004Z" fill="white"/>
<path fill-rule="evenodd" clip-rule="evenodd" d="M78.8766 102.934C94.1778 106.281 104.154 98.8326 100.554 85.6933C98.6969 77.8065 89.1475 70.3743 78.8766 68.8762C66.888 67.8208 57.5842 73.1049 57.648 83.4322C57.648 92.9542 66.9045 102.934 78.8766 102.934ZM68.4331 74.4417C65.6564 75.6071 64.9795 76.7279 64.4602 78.699C64.3763 79.0176 64.5472 79.3469 64.8525 79.4708L75.6407 83.8487C75.767 83.8999 75.9058 83.9113 76.0387 83.8813L90.4061 80.637C90.8624 80.534 91.074 80.0052 90.7968 79.6284C88.026 75.8628 84.5506 74.2312 74.2673 73.2583C74.2015 73.252 74.1332 73.2555 74.0684 73.2688L68.5556 74.4038C68.514 74.4124 68.4723 74.4253 68.4331 74.4417ZM74.3209 84.6574L65.1122 81.8801C64.6565 81.7427 64.2079 82.1134 64.2667 82.5857C65.4218 91.8668 69.0168 94.2698 76.9301 95.8962C77.4188 95.9967 77.8366 95.5393 77.6958 95.0607L74.7685 85.108C74.705 84.8919 74.5366 84.7224 74.3209 84.6574ZM92.0725 84.4465L77.2052 84.897C76.7198 84.9118 76.4121 85.4234 76.6267 85.8591L81.4993 95.7519C81.6073 95.9712 81.8322 96.1145 82.0765 96.1225C91.4738 96.4293 93.6231 93.686 92.7527 85.0429C92.7179 84.6974 92.4197 84.436 92.0725 84.4465Z" fill="white"/>
<path d="M5.52832 33.2039H33.5282C34.6515 33.2039 35.4369 32.0965 34.7356 31.2189C32.9539 28.9893 28.9834 26.9632 20.1541 24.2018C16.1599 22.9526 11.6786 23.0659 8.24247 25.4549C5.44891 27.3972 4.56628 29.0909 3.92232 31.0294C3.56694 32.0991 4.40107 33.2039 5.52832 33.2039Z" fill="white"/>
<path fill-rule="evenodd" clip-rule="evenodd" d="M26.446 87.5981H19.605L21.1067 35.373H26.6128C27.7082 39.1509 29.2203 40.2982 33.1201 41.046C39.597 41.6354 43.4391 41.6268 49.0098 40.8609C50.4255 40.6662 51.8261 40.2975 53.0804 39.6128C55.3892 38.3523 56.639 36.9592 57.5355 34.6256C57.9731 33.4867 57.5142 32.2187 56.5364 31.489C48.4471 25.4533 42.9812 22.3141 33.1201 17.6865L34.1212 15.1837C37.7341 16.4117 40.7511 17.5191 43.5464 18.545L43.5465 18.5451L43.5465 18.5451C48.3666 20.3142 52.5271 21.8413 57.9463 23.3276C60.9497 24.1513 65.1443 24.1328 65.947 21.1237C66.0824 20.6162 66.0965 20.0725 65.9945 19.4722C65.5193 16.6742 63.0977 14.6886 60.6995 13.1709C54.3582 9.15776 49.6007 6.71479 41.7965 3.17022L43.2982 0L56.9802 5.50617L67.1679 10.7576C71.1525 12.8115 74.8859 15.32 78.2935 18.2329L83.5099 22.6921L87.1651 26.3473C89.8372 29.0194 92.2104 31.9745 94.2427 35.1603L96.0306 37.9629C96.8679 39.2754 97.0564 40.9073 96.4166 42.3265C95.612 44.1114 94.5743 46.0894 93.8548 46.719C93.5419 46.9928 92.8917 47.2924 92.0673 47.5918C88.908 48.739 85.5672 48.0371 82.2262 47.3353L82.2261 47.3353C81.1504 47.1093 80.0746 46.8833 79.0048 46.719C79.0048 46.719 76.1572 46.1815 74.333 46.719C72.1801 48.1924 71.5663 49.1726 70.9959 51.0572C71.0612 65.9151 73.8157 73.4335 78.4174 85.9937C78.61 86.5194 78.8058 87.0539 79.0048 87.5981L72.6644 88.933L67.3251 69.7448C66.0613 66.2202 65.082 64.3629 62.1526 61.569C60.0894 59.6193 58.5457 58.4339 56.8152 57.3621C54.5418 55.954 52.0292 54.968 49.4109 54.4242C45.7126 53.656 40.7239 53.0009 36.624 53.56C30.7508 54.3609 28.6151 59.4555 28.2814 61.9027L26.446 87.5981ZM73.165 32.5364C73.165 33.6423 72.804 35.0392 71.3296 35.0392C69.8552 35.0392 68.9937 34.1428 68.9937 33.037C68.9937 31.9312 69.8552 31.0348 71.3296 31.0348C72.804 31.0348 73.165 31.4306 73.165 32.5364ZM80.006 30.2005C81.4804 30.2005 82.6757 28.9704 82.6757 27.8646C82.6757 26.9565 82.0948 26.9772 81.0707 27.0137C80.8476 27.0216 80.6035 27.0303 80.3397 27.0303C78.8653 27.0303 78.5043 27.2593 78.5043 28.3651C78.5043 29.4709 78.5316 30.2005 80.006 30.2005Z" fill="white"/>
</svg>
