<svg width="37" height="40" viewBox="0 0 37 40" fill="none" xmlns="http://www.w3.org/2000/svg">
<path fill-rule="evenodd" clip-rule="evenodd" d="M8.77136 39.1198C14.2664 39.7594 18.223 36.4086 17.6345 31.6626C17.6345 27.5441 13.6663 24.3887 8.77137 24.3887C3.01858 23.1566 -0.634909 25.4698 0.0917623 30.6846C0.0917623 34.8031 3.87643 39.1198 8.77136 39.1198ZM3.44709 27.7777L8.23741 30.7856C8.37961 30.8749 8.55767 30.885 8.70904 30.8123L14.1886 28.1821C14.4112 28.0753 14.5069 27.8161 14.3194 27.6555C14.0073 27.3884 13.4567 27.1186 12.7765 26.7852L12.7764 26.7852L12.7764 26.7852L12.7759 26.7849C12.6122 26.7047 12.441 26.6208 12.2639 26.5324C12.1787 26.4899 12.0825 26.4727 11.9879 26.4837C11.8118 26.5041 11.6427 26.5242 11.4793 26.5436C9.91702 26.7295 8.86462 26.8548 6.99887 26.5892L6.90775 26.5763C6.66009 26.5411 4.70609 26.6174 4.45772 26.6472C4.44039 26.6493 4.42323 26.6535 4.40689 26.6596C4.32476 26.6904 4.2454 26.7188 4.16929 26.746L4.16929 26.746L4.16928 26.746L4.16928 26.746L4.16927 26.746C3.71921 26.907 3.38288 27.0273 3.2597 27.353C3.19815 27.5158 3.29975 27.6852 3.44709 27.7777ZM6.81824 30.6517L2.95294 28.474C2.72154 28.3437 2.42636 28.4208 2.30138 28.6552C1.9979 29.2243 1.82993 29.7045 1.6199 30.5012C1.3306 31.5713 1.26912 32.1833 1.42481 33.2355C1.43238 33.2866 1.44842 33.3365 1.47208 33.3825C1.73727 33.8977 1.94093 34.213 2.24783 34.5476C2.40871 34.7229 2.67669 34.7378 2.86822 34.5966L6.96927 31.5721C7.21004 31.3945 7.23634 31.0443 7.0248 30.8328L6.92399 30.7319C6.89256 30.7005 6.85698 30.6735 6.81824 30.6517ZM7.22672 32.0972L4.39629 35.7572C4.21901 35.9865 4.27764 36.3209 4.52731 36.468C5.00224 36.748 5.46877 36.9774 6.44874 37.3471C7.23821 37.6229 7.69416 37.7598 8.58811 37.8973C9.50069 38.1362 9.9975 38.1731 10.8497 38.0195C11.6178 37.8391 11.9601 37.7098 12.0802 37.5211C12.1439 37.4211 12.0929 37.2958 12.0195 37.2026L7.99777 32.0939C7.80091 31.8438 7.42142 31.8454 7.22672 32.0972ZM14.7846 29.1239L9.78461 31.3178C9.4719 31.455 9.39256 31.8624 9.63091 32.1069L13.5481 36.1258C13.7182 36.3004 13.992 36.3237 14.1848 36.1744C15.0975 35.4678 15.5943 34.8992 16.2541 33.8585C16.2777 33.8212 16.2963 33.7804 16.3088 33.7382C16.4805 33.1581 16.5478 32.804 16.5343 32.1516C16.4994 31.7291 16.4345 31.3846 16.3071 30.7679C16.2957 30.7129 16.2748 30.66 16.2455 30.6121L15.6174 29.5843L15.363 29.2662C15.2246 29.0933 14.9874 29.035 14.7846 29.1239Z" fill="#6E512A"/>
<path fill-rule="evenodd" clip-rule="evenodd" d="M28.7122 37.7087C34.3177 38.9344 37.9722 36.206 36.6535 31.3926C35.9732 28.5034 32.4749 25.7807 28.7122 25.2319C24.3204 24.8453 20.9121 26.781 20.9354 30.5643C20.9354 34.0525 24.3264 37.7087 28.7122 37.7087ZM24.8864 27.2707C23.8692 27.6976 23.6212 28.1083 23.431 28.8303C23.4003 28.947 23.4629 29.0677 23.5747 29.1131L27.5268 30.7168C27.5731 30.7356 27.624 30.7398 27.6726 30.7288L32.9359 29.5403C33.1031 29.5025 33.1806 29.3088 33.079 29.1708C32.064 27.7913 30.7909 27.1936 27.0237 26.8372C26.9996 26.8349 26.9746 26.8362 26.9508 26.8411L24.9313 27.2569C24.9161 27.26 24.9008 27.2647 24.8864 27.2707ZM27.0434 31.0131L23.6698 29.9957C23.5029 29.9453 23.3386 30.0812 23.3601 30.2542C23.7833 33.6542 25.1002 34.5345 27.9992 35.1303C28.1782 35.1671 28.3313 34.9996 28.2797 34.8242L27.2073 31.1782C27.184 31.099 27.1224 31.0369 27.0434 31.0131ZM33.5464 30.9359L28.1 31.1009C27.9221 31.1063 27.8094 31.2937 27.888 31.4533L29.673 35.0774C29.7126 35.1578 29.795 35.2103 29.8845 35.2132C33.3271 35.3256 34.1144 34.3206 33.7956 31.1543C33.7828 31.0278 33.6736 30.932 33.5464 30.9359Z" fill="#6E512A"/>
<path d="M1.84195 12.1638H12.0993C12.5108 12.1638 12.7986 11.7581 12.5417 11.4367C11.8889 10.6199 10.4344 9.87761 7.1999 8.86602C5.73667 8.40839 4.09503 8.44992 2.83624 9.32509C1.81286 10.0366 1.48952 10.6571 1.25361 11.3672C1.12342 11.7591 1.42899 12.1638 1.84195 12.1638Z" fill="#6E512A"/>
<path fill-rule="evenodd" clip-rule="evenodd" d="M9.50489 32.0904H6.99878L7.5489 12.9584H9.56601C9.96728 14.3424 10.5212 14.7627 11.9499 15.0366C14.3226 15.2526 15.7301 15.2494 17.7708 14.9688C18.2895 14.8975 18.8026 14.7625 19.2621 14.5116C20.1079 14.0498 20.5657 13.5395 20.8941 12.6846C21.0544 12.2674 20.8863 11.8029 20.5281 11.5356C17.5647 9.32449 15.5623 8.17446 11.9499 6.4792L12.3166 5.56234C13.6402 6.01221 14.7454 6.41788 15.7694 6.79373L15.7694 6.79374C17.5352 7.44185 19.0594 8.00128 21.0446 8.54574C22.1449 8.84749 23.6815 8.84074 23.9756 7.7384C24.0252 7.55247 24.0303 7.35331 23.993 7.13339C23.8189 6.10839 22.9317 5.38096 22.0532 4.82497C19.7302 3.35482 17.9873 2.45987 15.1283 1.16137L15.6785 0L20.6907 2.01711L24.4228 3.94089C25.8825 4.69333 27.2502 5.61227 28.4985 6.67937L30.4095 8.31294L31.7485 9.65199C32.7274 10.6309 33.5968 11.7134 34.3413 12.8805L34.9963 13.9072C35.303 14.388 35.3721 14.9859 35.1377 15.5058C34.8429 16.1596 34.4628 16.8842 34.1992 17.1149C34.0846 17.2152 33.8464 17.325 33.5444 17.4346C32.387 17.8549 31.1631 17.5978 29.9392 17.3406C29.5451 17.2579 29.151 17.1751 28.7591 17.1149C28.7591 17.1149 27.7159 16.918 27.0476 17.1149C26.259 17.6546 26.0341 18.0137 25.8251 18.7041C25.8491 24.1471 26.8582 26.9014 28.5439 31.5026L28.7591 32.0904L26.4364 32.5794L24.4804 25.5501C24.0174 24.2589 23.6587 23.5785 22.5855 22.555C21.8297 21.8407 21.2642 21.4065 20.6303 21.0138C19.7974 20.498 18.877 20.1368 17.9178 19.9376C16.563 19.6562 14.7354 19.4162 13.2335 19.621C11.0819 19.9144 10.2995 21.7807 10.1773 22.6772L9.50489 32.0904ZM26.6198 11.9193C26.6198 12.3244 26.4875 12.8362 25.9474 12.8362C25.4073 12.8362 25.0917 12.5078 25.0917 12.1027C25.0917 11.6976 25.4073 11.3692 25.9474 11.3692C26.4875 11.3692 26.6198 11.5142 26.6198 11.9193ZM29.1259 11.0635C29.666 11.0635 30.1039 10.6129 30.1039 10.2078C30.1039 9.87516 29.8911 9.88273 29.5159 9.89608C29.4342 9.89899 29.3447 9.90217 29.2481 9.90217C28.708 9.90217 28.5758 9.98607 28.5758 10.3912C28.5758 10.7963 28.5857 11.0635 29.1259 11.0635Z" fill="#6E512A"/>
</svg>
