<svg width="210" height="130" viewBox="0 0 210 130" fill="none" xmlns="http://www.w3.org/2000/svg">
<path d="M134.46 10.3196C133.553 10.2396 132.838 9.92551 132.313 9.37743C131.789 8.82935 131.551 8.08481 131.601 7.14382C131.686 6.13962 132.069 5.34627 132.75 4.76377C133.433 4.14881 134.277 3.88392 135.281 3.96908C136.22 4.05085 136.936 4.36492 137.428 4.9113C137.952 5.45938 138.174 6.20307 138.092 7.14237C138.008 8.11411 137.641 8.90831 136.991 9.52497C136.342 10.1092 135.499 10.3741 134.46 10.3196ZM133.216 34.9991C132.242 34.948 131.493 34.6485 130.969 34.1004C130.446 33.5199 130.219 32.5807 130.287 31.2827C130.326 30.5364 130.429 29.8097 130.596 29.1027C130.796 28.3973 131.011 27.709 131.241 27.0378C131.506 26.3359 131.723 25.6151 131.892 24.8756C132.093 24.1378 132.216 23.3471 132.26 22.5034C132.29 21.9194 132.238 21.3635 132.103 20.8358C131.97 20.2757 131.634 19.8514 131.096 19.5629C130.686 19.3137 130.325 19.067 130.012 18.8228C129.734 18.5479 129.605 18.2158 129.625 17.8264C129.649 17.3721 129.886 16.8965 130.335 16.3994C130.784 15.9024 131.358 15.4932 132.058 15.172C132.793 14.82 133.533 14.6636 134.279 14.7027C135.09 14.7452 135.664 14.9867 135.998 15.4273C136.366 15.8695 136.597 16.4185 136.693 17.0743C136.789 17.73 136.819 18.3986 136.783 19.08C136.729 20.1184 136.594 21.1363 136.379 22.1336C136.166 23.0986 135.956 23.9986 135.749 24.8338C135.587 25.4435 135.46 26.0062 135.368 26.522C135.276 27.0378 135.218 27.5228 135.194 27.9771C135.152 28.7883 135.314 29.415 135.681 29.8572C136.05 30.267 136.582 30.6691 137.278 31.0634C137.561 31.241 137.694 31.492 137.677 31.8165C137.664 32.0761 137.513 32.4749 137.224 33.0129C136.936 33.5509 136.455 34.03 135.782 34.4503C135.142 34.8723 134.286 35.0552 133.216 34.9991ZM148.25 35.9334C146.271 35.8297 144.877 35.1059 144.069 33.762C143.295 32.3874 142.962 30.6618 143.071 28.5851C143.11 27.8388 143.181 27.1104 143.283 26.4C143.418 25.6912 143.553 24.9825 143.688 24.2737C143.822 23.5649 143.956 22.8724 144.089 22.1961C144.222 21.5198 144.338 20.8751 144.435 20.2619C143.743 20.4209 143.057 20.4826 142.375 20.4468C141.661 20.4094 141.32 20.0987 141.35 19.5146C141.383 18.8981 141.698 18.1663 142.295 17.3191C142.894 16.4394 143.622 15.5828 144.48 14.7492C145.369 13.9173 146.235 13.2306 147.077 12.6891C147.953 12.1168 148.683 11.8459 149.267 11.8765C149.981 11.9139 150.305 12.5492 150.241 13.7822C150.224 14.1067 150.173 14.4457 150.09 14.7992C150.04 15.122 149.974 15.4601 149.89 15.8137C150.513 15.7162 151.136 15.6349 151.757 15.5699C152.412 15.5066 153.031 15.4902 153.615 15.5208C154.361 15.5599 154.922 15.7195 155.298 15.9995C155.706 16.2812 155.891 16.7952 155.851 17.5415C155.811 18.3202 155.575 19.0888 155.145 19.8471C154.747 20.6072 154.321 20.9753 153.867 20.9515C153.77 20.9464 153.608 20.9217 153.383 20.8773C153.157 20.833 152.884 20.7698 152.563 20.6879C152.146 20.5685 151.616 20.4431 150.972 20.3117C150.328 20.1804 149.552 20.0909 148.643 20.0433C148.364 21.0373 148.098 22.0645 147.847 23.1251C147.631 24.155 147.5 25.0917 147.456 25.9354C147.358 27.8174 147.761 29.1237 148.666 29.8545C149.571 30.5852 150.916 30.9973 152.701 31.0908C153.253 31.1198 153.637 31.2375 153.854 31.4441C154.073 31.6182 154.17 31.9325 154.146 32.3867C154.09 33.4575 153.491 34.3372 152.348 35.0257C151.206 35.7141 149.84 36.0167 148.25 35.9334ZM160.82 16.8257C160.56 16.8121 160.335 16.7515 160.146 16.644C159.958 16.504 159.872 16.2717 159.889 15.9473C159.903 15.6877 159.997 15.4486 160.171 15.2299C160.378 15.013 160.634 14.7824 160.939 14.5381C161.687 13.9266 162.261 13.2245 162.66 12.432C163.062 11.6071 163.275 10.9513 163.3 10.4645C163.314 10.2049 163.259 10.0069 163.136 9.87026C163.047 9.70292 162.813 9.52792 162.432 9.34527C162.023 9.06358 161.717 8.70587 161.512 8.27214C161.339 7.84011 161.264 7.41318 161.286 6.99135C161.325 6.24505 161.636 5.59431 162.218 5.03915C162.835 4.45325 163.597 4.1841 164.506 4.23172C165.414 4.27933 166.13 4.5934 166.652 5.17393C167.175 5.75446 167.402 6.69369 167.334 7.99162C167.28 9.02996 167.031 10.0581 166.587 11.076C166.176 12.0957 165.655 13.0282 165.025 13.8737C164.429 14.6885 163.826 15.3401 163.214 15.8287C162.805 16.1977 162.384 16.4684 161.952 16.641C161.521 16.7812 161.144 16.8427 160.82 16.8257ZM170.907 37.1208C169.706 37.0579 168.596 36.8207 167.576 36.4094C166.557 35.998 165.739 35.4509 165.124 34.7679C164.509 34.0849 164.226 33.2892 164.273 32.3806C164.299 31.8939 164.436 31.4456 164.685 31.0356C164.969 30.595 165.386 30.3891 165.938 30.418C166.23 30.4333 166.534 30.5306 166.85 30.7098C167.417 31.0649 168.147 31.4123 169.04 31.7519C169.935 32.0591 170.886 32.2391 171.892 32.2918C173.027 32.3513 174.042 32.2418 174.935 31.9632C175.828 31.6847 176.29 31.2534 176.32 30.6693C176.344 30.215 176.021 29.8727 175.349 29.6423C174.711 29.4136 173.618 29.1448 172.073 28.8361C171.012 28.5853 169.986 28.3037 168.994 27.9914C168.001 27.6791 167.197 27.1977 166.58 26.5472C165.965 25.8642 165.69 24.9062 165.755 23.6732C165.818 22.4726 166.202 21.3377 166.909 20.2684C167.65 19.1685 168.705 18.2802 170.075 17.6036C171.444 16.927 173.086 16.6389 175.001 16.7392C176.007 16.7919 176.974 16.9565 177.903 17.233C178.832 17.5094 179.593 17.8909 180.186 18.3775C180.779 18.8641 181.057 19.4481 181.021 20.1295C180.991 20.7136 180.752 21.2379 180.304 21.7025C179.89 22.1689 179.398 22.5498 178.829 22.8454C178.295 23.1102 177.849 23.2333 177.492 23.2146C177.232 23.201 176.934 23.0063 176.595 22.6307C176.068 22.1475 175.467 21.8069 174.794 21.609C174.156 21.3803 173.512 21.2489 172.863 21.2149C171.889 21.1639 171.087 21.2683 170.455 21.528C169.855 21.7894 169.544 22.1473 169.52 22.6015C169.498 23.0234 169.723 23.3768 170.197 23.6619C170.702 23.9487 171.325 24.1766 172.064 24.3455C172.805 24.4819 173.514 24.6167 174.19 24.7497C176.059 25.108 177.528 25.6405 178.597 26.3472C179.668 27.0216 180.162 28.1537 180.078 29.7437C180.014 30.9767 179.592 32.191 178.814 33.3867C178.069 34.5515 177.012 35.4885 175.64 36.1975C174.302 36.9083 172.724 37.216 170.907 37.1208ZM130.127 66.9299C128.959 66.8687 128.46 66.4521 128.631 65.6801C129.061 64.3036 129.427 62.9074 129.729 61.4916C130.065 60.045 130.268 58.6565 130.337 57.3262C130.427 55.6064 130.379 54.3512 130.193 53.5605C130.041 52.7391 129.794 52.1731 129.452 51.8623C129.112 51.5191 128.687 51.2528 128.176 51.0634C127.954 50.9541 127.75 50.8133 127.564 50.6408C127.41 50.4701 127.341 50.2387 127.356 49.9466C127.38 49.4924 127.585 48.9988 127.971 48.4659C128.357 47.933 128.884 47.4888 129.554 47.1334C130.257 46.7473 131.031 46.5764 131.874 46.6206C132.978 46.6784 133.72 47.1078 134.101 47.9086C134.484 48.677 134.643 49.6778 134.578 50.9108C134.535 51.722 134.407 52.6263 134.192 53.6237C133.977 54.6211 133.767 55.5211 133.562 56.3238L133.657 56.3776C134.266 54.6851 134.982 53.1282 135.805 51.7072C136.66 50.2878 137.647 49.1519 138.766 48.2995C139.917 47.4488 141.206 47.0608 142.634 47.1356C144.094 47.2122 145.219 47.7755 146.01 48.8256C146.803 49.8433 147.149 51.3093 147.049 53.2238L146.993 54.2945C148.037 52.3645 149.26 50.7692 150.66 49.5085C152.092 48.2496 153.766 47.6703 155.68 47.7706C157.238 47.8522 158.427 48.4352 159.249 49.5194C160.071 50.6037 160.441 51.9246 160.359 53.4821C160.327 54.0986 160.231 54.6955 160.07 55.2727C159.911 55.8176 159.737 56.3615 159.545 56.9046C159.388 57.417 159.231 57.9456 159.072 58.4904C158.913 59.0352 158.819 59.5835 158.79 60.1351C158.688 62.082 159.449 63.3908 161.074 64.0616C161.296 64.1709 161.468 64.2938 161.591 64.4304C161.716 64.5345 161.771 64.7326 161.755 65.0247C161.74 65.3167 161.621 65.7334 161.397 66.2748C161.206 66.8179 160.838 67.3193 160.293 67.7788C159.75 68.2058 158.992 68.3939 158.019 68.3428C156.753 68.2765 155.803 67.7712 155.17 66.827C154.538 65.8503 154.259 64.6481 154.334 63.2203C154.371 62.5065 154.475 61.7636 154.646 60.9916C154.816 60.2197 155.018 59.4818 155.25 58.7782C155.446 58.1377 155.608 57.528 155.736 56.949C155.897 56.3718 155.988 55.8722 156.01 55.4504C156.051 54.6717 155.886 54.0936 155.515 53.7163C155.177 53.3406 154.7 53.1367 154.083 53.1043C153.045 53.0499 152.087 53.3251 151.209 53.9298C150.364 54.5363 149.59 55.3417 148.886 56.346C148.215 57.3521 147.62 58.4597 147.101 59.6689C147.119 59.9626 147.114 60.3529 147.089 60.8396C147.097 61.2956 147.092 61.702 147.074 62.059C147.041 62.6755 146.959 63.3219 146.826 63.9982C146.725 64.6762 146.549 65.2364 146.298 65.6788C146.006 66.2817 145.591 66.7642 145.051 67.1264C144.544 67.4903 143.869 67.6501 143.025 67.6059C142.668 67.5872 142.332 67.4882 142.016 67.3089C141.698 67.1621 141.548 66.9265 141.565 66.602C141.571 66.4722 141.698 65.9095 141.946 64.9138C142.195 63.8857 142.456 62.6304 142.729 61.148C143.002 59.6656 143.176 58.2105 143.251 56.7828C143.332 55.2252 143.226 54.146 142.932 53.5449C142.64 52.9114 142.169 52.5776 141.52 52.5436C140.709 52.5011 139.913 52.801 139.131 53.4433C138.381 54.0873 137.67 54.9285 136.997 55.967C136.357 57.0072 135.779 58.0994 135.264 59.2437C134.781 60.3898 134.383 61.4589 134.071 62.4512L134.043 62.9866C133.98 64.1872 133.587 65.159 132.865 65.9021C132.175 66.6468 131.262 66.9894 130.127 66.9299ZM165.353 81.7096C164.022 81.6399 162.905 81.2234 162.002 80.4603C161.066 79.6954 160.629 78.7127 160.692 77.5121C160.741 76.5711 161.076 75.7752 161.696 75.1244C162.281 74.5043 162.996 74.2164 163.84 74.2606C164.229 74.281 164.501 74.3604 164.657 74.4987C164.812 74.637 164.935 74.7898 165.023 74.9571C165.261 75.3926 165.534 75.7648 165.843 76.0738C166.183 76.417 166.645 76.6039 167.229 76.6345C168.008 76.6753 168.769 76.4386 169.512 75.9244C170.287 75.4119 171.001 74.8149 171.655 74.1333C172.239 73.5457 172.951 72.6883 173.791 71.5609C174.629 70.4661 175.476 69.209 176.332 67.7896C175.585 68.3687 174.897 68.7719 174.267 68.9992C173.635 69.2589 173.044 69.3743 172.492 69.3454C171.811 69.3097 171.158 69.0315 170.535 68.5107C169.913 67.9575 169.557 66.9791 169.468 65.5753C169.427 64.4994 169.294 63.3048 169.07 61.9916C168.879 60.6801 168.604 59.413 168.245 58.1903C167.92 56.9368 167.488 55.873 166.948 54.9987C166.741 54.5974 166.497 54.2918 166.215 54.0818C165.933 53.8718 165.518 53.7199 164.97 53.6261C164.582 53.5732 164.329 53.4461 164.209 53.2446C164.122 53.0448 164.089 52.734 164.111 52.3122C164.173 51.144 164.546 50.22 165.233 49.5402C165.919 48.8603 166.814 48.5493 167.917 48.6071C169.248 48.6768 170.178 49.2462 170.707 50.3151C171.239 51.3516 171.677 52.611 172.022 54.0933C172.154 54.6859 172.275 55.4731 172.387 56.4551C172.532 57.4063 172.641 58.4369 172.713 59.547C172.817 60.6587 172.875 61.7192 172.888 62.7285C172.883 63.4441 173.269 63.8223 174.048 63.8631C175.087 63.9175 176.093 63.6449 177.068 63.0452C178.043 62.4456 178.85 61.6419 179.488 60.6342C180.159 59.6281 180.525 58.5573 180.584 57.4216C180.618 56.7726 180.568 56.1843 180.433 55.6566C180.298 55.1289 180.046 54.6602 179.677 54.2504C179.373 53.844 179.129 53.5222 178.946 53.2848C178.765 53.0151 178.683 52.7179 178.7 52.3934C178.729 51.8418 179.016 51.3362 179.561 50.8767C180.105 50.4172 180.743 50.0439 181.474 49.7569C182.237 49.4715 182.895 49.3433 183.446 49.3722C184.42 49.4232 185.044 49.9277 185.319 50.8857C185.596 51.8112 185.624 52.8214 185.404 53.9161C185.13 55.431 184.646 57.2115 183.953 59.2575C183.26 61.3036 182.384 63.4377 181.324 65.6597C180.296 67.8835 179.127 70.0185 177.816 72.0647C176.535 74.1451 175.188 75.9454 173.775 77.4656C172.566 78.8014 171.242 79.8545 169.802 80.625C168.361 81.428 166.878 81.7895 165.353 81.7096ZM193.139 61.3007C192.587 61.2718 192.218 61.1711 192.032 60.9987C191.847 60.7938 191.765 60.4967 191.786 60.1073C191.791 60.0099 191.798 59.8801 191.806 59.7179C191.816 59.5232 191.846 59.2645 191.896 58.9417C191.995 58.2961 192.085 57.5037 192.167 56.5644C192.248 55.6251 192.318 54.6038 192.376 53.5006C192.521 50.7425 192.499 48.6752 192.311 47.2988C192.123 45.9224 191.963 44.9217 191.834 44.2966C191.765 43.7399 191.735 43.3804 191.744 43.2182C191.771 42.699 192.093 42.1465 192.709 41.5606C193.36 40.9439 194.285 40.6671 195.486 40.73C196.621 40.7895 197.313 41.2487 197.561 42.1077C197.843 42.9359 197.935 44.2748 197.839 46.1243C197.765 47.5196 197.603 49.0566 197.353 50.7355C197.102 52.4143 196.825 53.9778 196.521 55.4261C196.218 56.8743 195.948 57.9827 195.713 58.7513C195.358 59.9366 194.978 60.665 194.573 60.9366C194.201 61.21 193.723 61.3313 193.139 61.3007ZM192.241 70.0388C191.333 69.9912 190.602 69.66 190.048 69.0453C189.527 68.4324 189.291 67.6716 189.338 66.7631C189.388 65.8221 189.737 65.0595 190.386 64.4752C191.034 63.891 191.846 63.6244 192.819 63.6755C193.728 63.7231 194.443 64.0371 194.966 64.6177C195.489 65.1982 195.726 65.9427 195.679 66.8513C195.627 67.8247 195.277 68.6198 194.626 69.2364C193.977 69.8207 193.182 70.0881 192.241 70.0388ZM134.611 117.331C133.41 117.268 132.383 117.003 131.529 116.535C130.708 116.069 129.989 115.495 129.374 114.812C129.021 115.346 128.605 115.829 128.127 116.259C127.683 116.659 127.186 116.844 126.634 116.815C126.277 116.797 125.942 116.665 125.63 116.421C125.315 116.21 125.2 115.927 125.284 115.573C125.906 113.003 126.45 110.396 126.914 107.752C127.41 105.11 127.731 102.41 127.875 99.652C127.996 97.3482 128.028 95.1861 127.971 93.1658C127.914 91.1455 127.508 89.2696 126.753 87.5381C126.608 87.2051 126.478 86.8892 126.363 86.5904C126.281 86.2932 126.247 86.0149 126.261 85.7553C126.293 85.1388 126.681 84.5572 127.426 84.0105C128.17 83.4639 128.948 83.2118 129.759 83.2543C130.927 83.3155 131.685 84.0711 132.032 85.5209C132.379 86.9707 132.479 89.0909 132.333 91.8815C132.209 94.2502 131.982 96.4183 131.651 98.3857C131.354 100.322 131.039 101.982 130.707 103.363C131.715 101.496 133.033 99.9548 134.658 98.7385C136.318 97.4915 138.137 96.9198 140.117 97.0236C142.096 97.1273 143.602 97.8733 144.636 99.2614C145.704 100.619 146.179 102.417 146.061 104.656C145.975 106.311 145.63 107.92 145.028 109.482C144.427 111.013 143.623 112.386 142.615 113.602C141.608 114.818 140.42 115.765 139.05 116.441C137.713 117.12 136.233 117.416 134.611 117.331ZM136.006 112.133C137.856 112.23 139.314 111.721 140.381 110.605C141.448 109.49 142.022 108.17 142.102 106.645C142.171 105.314 141.852 104.273 141.143 103.52C140.468 102.736 139.53 102.313 138.33 102.25C137.129 102.187 136.039 102.504 135.059 103.201C134.08 103.865 133.235 104.781 132.523 105.948C131.813 107.082 131.244 108.321 130.816 109.665C131.524 110.418 132.323 111.013 133.211 111.45C134.133 111.856 135.065 112.084 136.006 112.133ZM154.505 93.4827C153.598 93.4026 152.882 93.0885 152.358 92.5405C151.833 91.9924 151.596 91.2478 151.645 90.3068C151.73 89.3026 152.114 88.5093 152.795 87.9268C153.478 87.3118 154.321 87.0469 155.326 87.1321C156.265 87.2139 156.981 87.5279 157.473 88.0743C157.997 88.6224 158.218 89.3661 158.137 90.3054C158.053 91.2771 157.686 92.0713 157.036 92.688C156.387 93.2722 155.543 93.5371 154.505 93.4827ZM153.26 118.162C152.287 118.111 151.538 117.812 151.013 117.263C150.491 116.683 150.263 115.744 150.331 114.446C150.371 113.699 150.474 112.973 150.641 112.266C150.841 111.56 151.056 110.872 151.286 110.201C151.55 109.499 151.767 108.778 151.936 108.039C152.137 107.301 152.26 106.51 152.304 105.666C152.335 105.082 152.283 104.527 152.148 103.999C152.015 103.439 151.679 103.014 151.141 102.726C150.731 102.477 150.37 102.23 150.057 101.986C149.779 101.711 149.65 101.379 149.67 100.989C149.694 100.535 149.93 100.06 150.379 99.5624C150.828 99.0654 151.403 98.6562 152.103 98.335C152.837 97.9831 153.578 97.8266 154.324 97.8657C155.135 97.9083 155.708 98.1498 156.043 98.5903C156.41 99.0325 156.642 99.5815 156.738 100.237C156.833 100.893 156.863 101.562 156.828 102.243C156.773 103.281 156.639 104.299 156.424 105.297C156.21 106.262 156 107.162 155.794 107.997C155.632 108.607 155.505 109.169 155.413 109.685C155.321 110.201 155.263 110.686 155.239 111.14C155.196 111.951 155.359 112.578 155.726 113.02C156.095 113.43 156.627 113.832 157.322 114.226C157.606 114.404 157.739 114.655 157.722 114.98C157.708 115.239 157.557 115.638 157.269 116.176C156.98 116.714 156.5 117.193 155.827 117.613C155.187 118.035 154.331 118.218 153.26 118.162ZM163.043 118.724C162.686 118.705 162.351 118.573 162.039 118.329C161.725 118.118 161.609 117.835 161.693 117.481C162.316 114.911 162.859 112.304 163.323 109.66C163.821 106.986 164.141 104.286 164.284 101.56C164.41 99.159 164.443 96.9807 164.383 95.0253C164.322 93.0699 163.901 91.1769 163.118 89.3463C162.975 88.9809 162.861 88.6658 162.778 88.4012C162.694 88.1365 162.658 87.8906 162.67 87.6634C162.702 87.0469 163.091 86.4653 163.835 85.9187C164.579 85.372 165.357 85.1199 166.169 85.1625C167.337 85.2237 168.094 85.9792 168.441 87.429C168.788 88.8788 168.889 90.999 168.742 93.7896C168.567 97.1317 168.219 100.042 167.699 102.52C167.181 104.966 166.741 106.83 166.381 108.112L166.571 108.22C167.303 106.664 168.21 105.182 169.293 103.775C170.377 102.335 171.593 101.162 172.942 100.257C174.324 99.3531 175.793 98.9421 177.351 99.0237C178.876 99.1036 180.02 99.6191 180.784 100.57C181.58 101.523 181.945 102.632 181.878 103.898C181.8 105.39 181.195 106.692 180.063 107.805C178.931 108.917 177.485 109.817 175.724 110.505C176.088 111.631 176.642 112.538 177.387 113.228C178.134 113.886 179.107 114.246 180.308 114.309C180.697 114.329 181.023 114.314 181.286 114.262C181.713 114.187 181.903 114.604 181.855 115.512C181.828 116.031 181.7 116.61 181.471 117.249C181.243 117.888 180.824 118.435 180.214 118.891C179.639 119.317 178.783 119.5 177.647 119.44C176.122 119.36 174.896 118.857 173.968 117.93C173.075 116.972 172.387 115.829 171.903 114.503C171.454 113.145 171.117 111.81 170.893 110.496C170.696 109.282 171.135 108.671 172.209 108.662C173.352 108.592 174.327 108.301 175.134 107.79C175.942 107.279 176.37 106.57 176.417 105.661C176.472 104.623 175.996 104.077 174.99 104.025C174.341 103.991 173.663 104.199 172.956 104.65C172.283 105.07 171.638 105.59 171.02 106.208C170.434 106.828 169.947 107.437 169.558 108.035C169.027 108.853 168.561 109.658 168.162 110.451C167.763 111.243 167.428 112.039 167.158 112.839L167.056 114.785C166.993 115.986 166.585 116.957 165.83 117.698C165.108 118.441 164.179 118.783 163.043 118.724ZM192.691 120.375C190.225 120.246 188.331 119.447 187.009 117.979C185.721 116.479 185.143 114.464 185.275 111.933C185.396 109.63 186.009 107.563 187.113 105.734C188.218 103.904 189.643 102.482 191.388 101.468C193.167 100.422 195.079 99.9528 197.123 100.06C199.07 100.162 200.602 100.73 201.719 101.765C202.838 102.767 203.356 104.063 203.272 105.653C203.206 106.919 202.755 108.066 201.921 109.096C201.086 110.126 200.002 110.932 198.67 111.513C197.34 112.061 195.88 112.294 194.29 112.211C192.343 112.109 190.776 111.587 189.589 110.646C189.543 112.141 189.983 113.368 190.909 114.327C191.867 115.289 193.125 115.81 194.683 115.892C195.624 115.941 196.59 115.829 197.58 115.555C198.605 115.251 199.489 114.826 200.234 114.279C200.708 113.914 201.14 113.741 201.53 113.761C201.854 113.778 202.108 113.906 202.291 114.143C202.508 114.349 202.607 114.615 202.59 114.939C202.553 115.653 201.887 116.562 200.593 117.666C198.31 119.628 195.676 120.531 192.691 120.375ZM194.02 108.975C195.188 109.036 196.175 108.844 196.979 108.398C197.783 107.952 198.205 107.356 198.244 106.61C198.276 105.993 198.041 105.509 197.539 105.158C197.039 104.773 196.334 104.558 195.426 104.51C194.225 104.447 193.154 104.716 192.211 105.318C191.303 105.888 190.624 106.731 190.175 107.846C190.614 108.162 191.186 108.42 191.892 108.62C192.597 108.819 193.306 108.938 194.02 108.975Z" fill="#7AC5C2"/>
<path fill-rule="evenodd" clip-rule="evenodd" d="M29.0684 129.643C47.279 131.763 60.3913 120.658 58.4409 104.93C58.4409 91.2811 45.2903 80.8244 29.0685 80.8244C10.0037 76.741 -2.10403 84.4069 0.304162 101.689C0.304162 115.338 12.8466 129.643 29.0684 129.643ZM11.4238 92.0556L27.2989 102.024C27.7702 102.32 28.3603 102.353 28.8619 102.112L47.0214 93.3957C47.7589 93.0417 48.0761 92.1826 47.4546 91.6506C46.4203 90.7653 44.5957 89.8711 42.3415 88.7664C41.7985 88.5003 41.2305 88.222 40.6427 87.9286C40.3603 87.7877 40.0417 87.7307 39.7282 87.7671C39.1472 87.8343 38.5895 87.9007 38.0501 87.9649L38.0494 87.965L38.0463 87.9653L38.0429 87.9657L38.0424 87.9658C32.8652 88.5818 29.3775 88.9968 23.1944 88.1168L22.8924 88.0739C22.0717 87.9574 15.5961 88.2102 14.773 88.309C14.7156 88.3159 14.6587 88.3299 14.6045 88.3502C14.3323 88.4521 14.0693 88.5462 13.8171 88.6364C12.3256 89.17 11.211 89.5687 10.8027 90.6481C10.5988 91.1874 10.9355 91.749 11.4238 92.0556ZM22.5958 101.58L9.78615 94.3631C9.01927 93.9311 8.04106 94.1868 7.62688 94.9635C6.62112 96.8495 6.06447 98.4409 5.36845 101.081C4.40971 104.627 4.20596 106.656 4.7219 110.143C4.74698 110.312 4.80016 110.477 4.87855 110.63C5.75741 112.337 6.43232 113.382 7.44941 114.491C7.98256 115.072 8.87066 115.121 9.50537 114.653L23.0963 104.63C23.8942 104.042 23.9814 102.881 23.2803 102.18L22.9463 101.846C22.8421 101.742 22.7242 101.652 22.5958 101.58ZM23.9495 106.37L14.5694 118.5C13.9819 119.259 14.1762 120.368 15.0036 120.855C16.5775 121.783 18.1236 122.543 21.3713 123.769C23.9876 124.682 25.4986 125.136 28.4611 125.592C31.4855 126.384 33.1319 126.506 35.9561 125.997C38.5016 125.399 39.6359 124.97 40.0341 124.345C40.2451 124.014 40.076 123.598 39.8329 123.29L26.5048 106.359C25.8524 105.531 24.5947 105.536 23.9495 106.37ZM48.9965 96.5169L32.4264 103.787C31.39 104.242 31.1271 105.592 31.917 106.403L44.8985 119.721C45.4624 120.3 46.3697 120.377 47.0086 119.882C50.0334 117.54 51.6798 115.656 53.8662 112.207C53.9445 112.084 54.0061 111.949 54.0476 111.808C54.6165 109.886 54.8397 108.713 54.7949 106.55C54.6793 105.15 54.4642 104.009 54.0419 101.965C54.0041 101.783 53.935 101.608 53.8378 101.449L51.7564 98.0426L50.9131 96.9885C50.4547 96.4155 49.6685 96.222 48.9965 96.5169Z" fill="#6E512A"/>
<path fill-rule="evenodd" clip-rule="evenodd" d="M95.1525 124.967C113.729 129.029 125.84 119.987 121.47 104.035C119.215 94.4605 107.622 85.4374 95.1526 83.6186C80.5979 82.3374 69.3027 88.7525 69.3801 101.29C69.3801 112.85 80.6179 124.967 95.1525 124.967ZM82.4737 90.3755C79.1027 91.7902 78.2808 93.151 77.6505 95.5439C77.5485 95.9308 77.756 96.3306 78.1267 96.481L91.2241 101.796C91.3773 101.858 91.5459 101.872 91.7072 101.835L109.15 97.8968C109.704 97.7717 109.961 97.1297 109.624 96.6723C106.26 92.1007 102.041 90.1199 89.5567 88.9387C89.4768 88.9311 89.3938 88.9353 89.3152 88.9515L82.6224 90.3294C82.5719 90.3398 82.5213 90.3555 82.4737 90.3755ZM89.6218 102.778L78.442 99.406C77.8888 99.2391 77.3441 99.6892 77.4155 100.263C78.8178 111.53 83.1823 114.448 92.7894 116.422C93.3827 116.544 93.8899 115.989 93.719 115.408L90.1652 103.325C90.088 103.062 89.8837 102.857 89.6218 102.778ZM111.173 102.522L93.1234 103.069C92.5341 103.087 92.1606 103.708 92.4211 104.237L98.3366 116.247C98.4677 116.513 98.7408 116.687 99.0374 116.697C110.446 117.069 113.055 113.739 111.999 103.246C111.956 102.826 111.594 102.509 111.173 102.522Z" fill="#6E512A"/>
<path d="M6.10462 40.3109H40.0976C41.4614 40.3109 42.4149 38.9665 41.5636 37.9011C39.4004 35.1942 34.5801 32.7344 23.8609 29.382C19.0118 27.8654 13.5713 28.003 9.39971 30.9033C6.0082 33.2613 4.93666 35.3176 4.15487 37.671C3.72342 38.9697 4.73608 40.3109 6.10462 40.3109Z" fill="#6E512A"/>
<path fill-rule="evenodd" clip-rule="evenodd" d="M31.4995 106.348H23.1943L25.0174 42.9443H31.7021C33.0319 47.5308 34.8677 48.9238 39.6022 49.8316C47.4655 50.5472 52.1299 50.5367 58.893 49.6068C60.6117 49.3705 62.3121 48.9229 63.8349 48.0916C66.6379 46.5613 68.1552 44.8701 69.2436 42.037C69.7748 40.6542 69.2177 39.1148 68.0306 38.229C58.2099 30.9015 51.574 27.0902 39.6022 21.4721L40.8176 18.4336C45.2038 19.9245 48.8666 21.2689 52.2601 22.5144L52.2603 22.5145C58.1121 24.6624 63.1632 26.5163 69.7422 28.3207C73.3885 29.3207 78.4809 29.2983 79.4555 25.6451C79.6199 25.029 79.637 24.3689 79.5132 23.6401C78.9362 20.2432 75.9962 17.8325 73.0848 15.99C65.3862 11.1179 59.6103 8.15204 50.1357 3.84878L51.9588 0L68.5694 6.68472L80.9377 13.0601C85.7752 15.5537 90.3077 18.5991 94.4446 22.1355L100.778 27.5492L105.215 31.9868C108.459 35.2308 111.34 38.8184 113.808 42.6861L115.978 46.0886C116.995 47.682 117.224 49.6632 116.447 51.3862C115.47 53.5532 114.21 55.9545 113.337 56.7189C112.957 57.0513 112.168 57.4151 111.167 57.7785C107.331 59.1712 103.275 58.3192 99.2192 57.4671L99.219 57.467C97.9129 57.1927 96.6069 56.9183 95.3083 56.7189C95.3083 56.7189 91.8511 56.0663 89.6364 56.7189C87.0227 58.5076 86.2775 59.6977 85.585 61.9856C85.6643 80.0238 89.0084 89.1515 94.5951 104.4L94.5979 104.408C94.8308 105.043 95.0676 105.69 95.3083 106.348L87.6107 107.968L81.1285 84.6732C79.5942 80.3942 78.4054 78.1393 74.849 74.7474C72.3442 72.3804 70.4699 70.9413 68.3691 69.6401C65.6091 67.9305 62.5587 66.7335 59.38 66.0733C54.8901 65.1407 48.8335 64.3454 43.8561 65.0241C36.7258 65.9965 34.1329 72.1815 33.7278 75.1525L31.4995 106.348ZM88.2184 39.5006C88.2184 40.8431 87.7802 42.5391 85.9902 42.5391C84.2002 42.5391 83.1543 41.4508 83.1543 40.1083C83.1543 38.7658 84.2002 37.6775 85.9902 37.6775C87.7802 37.6775 88.2184 38.1581 88.2184 39.5006ZM96.5237 36.6647C98.3137 36.6647 99.7648 35.1713 99.7648 33.8288C99.7648 32.7264 99.0596 32.7515 97.8162 32.7957C97.5454 32.8054 97.249 32.8159 96.9289 32.8159C95.1389 32.8159 94.7006 33.094 94.7006 34.4365C94.7006 35.779 94.7337 36.6647 96.5237 36.6647Z" fill="#6E512A"/>
</svg>
